<svg xmlns="http://www.w3.org/2000/svg" viewBox="0 0 512 512">
  <path d="m151.063 55.563 2.495.022c8.23.218 15.625 1.965 23.442 4.415l2.135.633C195.769 65.577 211.235 72.906 226 82c1.436.867 2.872 1.733 4.309 2.598C239.019 89.86 247.6 95.252 256 101c4.651-2.488 8.946-5.332 13.25-8.375 4.686-3.288 9.42-6.248 14.492-8.902a326.275 326.275 0 0 0 7.828-4.29C307.532 70.452 323.444 63.278 341 58l2.691-.816c12.188-3.032 27.504-2.887 38.657 3.07 11.915 7.3 18.863 19.337 22.464 32.621.43 2.035.824 4.077 1.188 6.125l.617 3.215c3.18 20.063 1.943 40.957-.055 61.097l-.203 2.06c-1.133 11.176-1.133 11.176-2.359 13.628l1.652.544C441.165 191.302 482.635 208.003 501 243c4.312 8.883 4.532 19.363 1.438 28.688-3.36 8.053-7.513 14.957-14.438 20.312l-2.438 3.125c-4.387 5.27-10.23 8.914-15.865 12.723a243.73 243.73 0 0 0-4.244 2.96C451.414 320.375 434.87 327.069 419 333l-3.25 1.246C408.432 337 408.432 337 405 337l.438 3.145c1.449 11.557 1.785 23.036 1.812 34.668l.015 2.235c.073 13.066-.601 26.07-4.515 38.64l-.653 2.14c-4.639 14.617-11.344 25.818-24.855 33.508-14.119 7.247-30.143 6.078-45.003 1.392L330 452l-2.532-.813C313.903 446.74 301.378 441.09 289 434l-2.066-1.177c-7.983-4.581-15.625-9.55-23.13-14.878A116.294 116.294 0 0 0 256 413l-1.95 1.469c-7.108 5.273-14.42 10.046-22.05 14.531l-1.864 1.098c-24.399 14.28-55.365 30.93-84.5 25.246-7.135-2.147-13.832-5.65-19.636-10.344l-1-3h-2c-1.429-1.97-2.716-3.938-4-6l-1.195-1.751c-3.395-5.09-5.327-10.073-6.993-15.937l-.748-2.45c-3.796-12.948-4.361-25.572-4.27-38.963.018-2.762.02-5.524.02-8.286.021-10.245.333-20.401 1.186-30.613l-3.75-1.363c-10.125-3.738-20.061-7.765-29.875-12.262l-2.938-1.341C46.715 312.028 22.474 297.436 11 273c-3.317-9.725-3.3-19.82.668-29.34C21.688 223.648 39.321 210.002 59 200l1.801-.921A954.608 954.608 0 0 1 75 192l1.908-.943C101.403 179 101.403 179 109 179l-.93-3.836C100.943 142.897 101.515 103.043 116 73h2l.688-1.688c4.444-7.83 12.615-12.044 20.895-14.697 3.843-.978 7.529-1.105 11.48-1.053Zm-13.102 26.07c-12.15 12.77-12.508 32.717-12.336 49.367l.008 2.273A245.638 245.638 0 0 0 129 173l2.523-.629c9.856-2.389 19.76-4.523 29.689-6.583l4.545-.948c2.174-.455 4.349-.905 6.524-1.352l2.09-.435c3.578-.725 7.016-1.183 10.66-1.323 5.37-.508 8.362-4.01 11.969-7.73l2.135-2.116a760.18 760.18 0 0 0 6.678-6.759c6.435-6.509 12.912-12.557 20.187-18.125a125.619 125.619 0 0 0 6-5v-2l2.375-.813c2.906-1.035 2.906-1.035 4.625-4.187l-1.625-.96c-4.01-2.389-8.006-4.792-11.934-7.313C205.857 94.183 184.26 81.75 161 78l-2.883-.496c-7.3-.986-14.208-.634-20.156 4.129ZM274 115a220.005 220.005 0 0 0 9.813 9.375l2.644 2.367A987.874 987.874 0 0 0 293 132.5c23.53 20.559 23.53 20.559 26 25.5h2l1 3 2.05.272c20.278 2.735 40.122 6.693 59.95 11.728 6.761-44.981 6.761-44.981-5.46-87.273C374.311 80.23 369.81 78.05 363 77c-31.186-1.795-64 22.309-89 38Zm-24 18-1.441 1.45c-1.607 1.598-3.278 3.072-4.996 4.55-3.698 3.216-7.327 6.5-10.938 9.813l-1.588 1.455c-2.046 1.88-4.072 3.767-6.037 5.732h63a430.592 430.592 0 0 0-11.375-11l-1.633-1.54c-2.793-2.593-5.612-4.967-8.734-7.16C263 134 263 134 260.25 131.188c-4.218-4.1-6.45-1.513-10.25 1.813Zm-32.5 44.875-2.04.119c-9.37.1-9.37.1-17.03 4.713l-1.555 2.106-1.82 2.433L193 190a4994.808 4994.808 0 0 1-3.705 4.72c-4.847 6.195-9.172 12.576-13.295 19.28a3991.04 3991.04 0 0 1-3.438 5.313A336.352 336.352 0 0 0 161 239l-1.182 2.138a291.146 291.146 0 0 0-3.506 6.674c-.375.681-.75 1.362-1.138 2.063-1.908 3.86-2.493 6.326-1.205 10.496 2.08 5.114 4.616 10.015 7.219 14.879l1.475 2.784C166.5 285.21 170.567 292.173 175 299l1.438 2.258c3.276 5.045 6.795 9.925 10.312 14.805l1.468 2.062c1.21 1.662 2.491 3.274 3.782 4.875h2l.336 1.71c1.525 5.257 4.106 8.283 8.664 11.29 3.306.835 6.6 1.05 9.996 1.258l3.035.222c11.852.781 23.72.82 35.593.78 3.806-.01 7.611 0 11.417.013 11.847.01 23.672-.182 35.494-.976l2.997-.159c4.617-.369 6.838-.628 10.523-3.61L314 331l1.582-1.73c2.6-2.753 2.6-2.753 3.418-6.27l3-1c2.091-2.595 2.091-2.595 4.188-5.813l1.201-1.782a783.642 783.642 0 0 0 2.445-3.656 483.29 483.29 0 0 1 3.146-4.647c17.527-23.275 17.527-23.275 25.907-49.895-1.222-4.42-3.08-8.4-5.075-12.52l-1.227-2.565c-2.432-5-4.974-9.757-8.296-14.235C343 225 343 225 341.684 222.324c-2.153-4.25-4.667-8.2-7.247-12.199l-1.498-2.375-1.443-2.242-1.307-2.043L329 202h-2l-.203-1.637c-1.118-3.314-3.275-5.591-5.547-8.175l-2.61-3.02-1.357-1.535C316 186 316 186 315.016 184.103c-1.161-2.147-2.131-3.537-4.016-5.103-4.31-1.234-8.598-1.31-13.063-1.438-1.356-.06-2.713-.121-4.07-.184-4.621-.194-9.243-.295-13.867-.378l-2.59-.049c-19.984-.355-39.955-.287-59.91.924Zm-69.875 11.563-3.598.986c-5.643 1.435-5.643 1.435-11.027 3.576.74 6.931 2.618 13.535 4.438 20.25l.947 3.586.924 3.43.837 3.118c.786 2.806.786 2.806 2.854 5.616l1.102-2.309c2.847-5.847 5.83-11.345 9.539-16.687 1.54-2.27 2.832-4.65 4.156-7.05 2.22-3.606 4.84-6.936 7.398-10.306 1.707-2.504 2.807-4.799 3.805-7.648-7.567-.514-14.13 1.388-21.375 3.438ZM344 186c1.402 4.005 3.315 7.003 5.875 10.375 2.639 3.481 4.966 6.974 7.094 10.791a198.753 198.753 0 0 0 3.285 5.588l1.15 1.9a2434.86 2434.86 0 0 0 2.328 3.828A138.202 138.202 0 0 1 370 230c2.243-3.364 2.945-6.09 3.945-10.004l.53-2.058c.367-1.432.732-2.865 1.094-4.3.555-2.197 1.12-4.393 1.685-6.59C379.172 200.6 379.172 200.6 380 194a8368.14 8368.14 0 0 0-11.688-3.438l-3.341-.986-3.233-.947-2.967-.873c-5.064-1.382-9.504-1.86-14.771-1.756ZM40 240c-5.49 6.382-9.15 12.297-8.875 20.938 1.69 10.154 8.503 17.379 16.375 23.437.615.476 1.23.951 1.865 1.44 14.77 11.241 31.328 18.744 48.447 25.685l2.514 1.025c4.221 1.673 8.128 2.948 12.674 3.475l.629-3.094a366.728 366.728 0 0 1 6.746-26.969l.885-3.108c1.353-4.625 2.765-9.084 4.771-13.47 3.064-6.786 4.824-11.626 2.277-18.878a240.882 240.882 0 0 0-3.015-7.028c-2.86-6.476-4.705-13.208-6.606-20.016l-1.02-3.567c-1.853-6.579-3.46-13.142-4.667-19.87-23.034 0-57.553 24.681-73 40Zm360-39-.813 3.46a512.188 512.188 0 0 1-8.25 30.227l-.994 3.29c-1.494 4.826-3.06 9.423-5.252 13.98-1.215 2.635-1.7 3.801-1.582 6.746L384 261l1.016 2.734 1.234 3.016c6.205 15.86 10.187 32.624 13.75 49.25 7.254-1.371 13.713-3.684 20.5-6.563l3.189-1.345C441.503 300.461 459.545 291.318 473 277l1-3h2c4.068-5.213 6.423-10.388 5.813-17.063-2.334-13.683-14.23-22.37-24.813-29.937-13.327-9.42-27.656-16.48-43-22l-3.145-1.191c-5.286-2.11-5.286-2.11-10.855-2.809Zm-258 84c-3.612 12.26-6.808 24.625-10 37 4.9 2.661 10.186 3.72 15.563 5.063l3.134.814A107.984 107.984 0 0 0 171 331c-1.798-3.752-4.1-6.976-6.563-10.313-8.186-11.29-14.967-23.35-21.437-35.687h-1Zm228 0-1.688 3.043c-7.573 13.6-15.347 26.906-25.042 39.14-1.461 1.72-1.461 1.72-1.27 3.817 6.87-.628 13.414-1.863 20.125-3.438l2.879-.658c5.045-1.165 10.033-2.426 14.996-3.904-.575-8.321-2.784-16.08-5.063-24.063A2726.776 2726.776 0 0 0 371 285l-.999.001Zm-241 59c-3.093 25.217-6.531 57.93 8.582 80.25 3.707 4.575 7.765 7.96 13.418 9.75 10.356 1.062 19.194-.571 29-4l1.894-.633C202.014 422.615 220.917 411.5 238 399c-3.657-3.76-7.478-7.199-11.5-10.563l-1.684-1.42a266.713 266.713 0 0 0-7.543-6.146 33.032 33.032 0 0 1-5.148-5.246c-2.036-2.453-4.1-4.54-6.563-6.563-3.409-2.81-6.23-5.96-9.082-9.328-3.26-3.82-5.822-4.35-10.628-5.101l-2.184-.363c-1.545-.255-3.09-.508-4.637-.757-4.008-.646-8.011-1.319-12.015-1.99-.787-.13-1.573-.262-2.383-.397a533.486 533.486 0 0 1-18.258-3.376l-2.248-.457c-5.054-1.042-10.091-2.162-15.127-3.293Zm245.25 1.625c-8.615 2.096-17.298 3.816-26 5.5l-1.988.388c-7.852 1.527-15.665 2.89-23.613 3.821-4.452 1.12-6.166 4.051-8.649 7.666a174.788 174.788 0 0 1-5 4 449.227 449.227 0 0 0-5 5 5280.416 5280.416 0 0 1-5.563 5.625l-1.42 1.445c-2.032 2.047-4.025 3.936-6.357 5.64L289 386v2l-1.71.781c-2.54 1.352-4.659 2.938-6.915 4.719l-2.352 1.844c-2.08 1.646-2.08 1.646-4.023 3.656 37.294 25.227 37.294 25.227 80.438 35.25l3.87.078c7.34-.652 12.902-4.953 17.692-10.328 8.818-13.727 10.197-32.532 10.188-48.375l.001-3.45c-.058-9.5-.83-18.78-2.189-28.175-3.508 0-6.339.769-9.75 1.625ZM225 358c4.173 5.285 8.537 10.014 14 14h2l.586 1.672c2.02 3.326 4.952 5.31 8.039 7.578l1.852 1.39A731.17 731.17 0 0 0 256 386l1.504-1.137c3.867-2.913 7.748-5.776 11.758-8.492 2.446-1.93 4.545-4.16 6.738-6.371a694.46 694.46 0 0 1 5.813-5.313l2.957-2.675L287 360c-1.829-2.253-1.829-2.253-4.518-2.24l-3.217.013h-3.64l-3.945.032-4.027.008c-3.535.008-7.07.028-10.604.05-3.606.02-7.212.03-10.819.04-7.076.02-14.153.055-21.23.097Z"/>
  <path d="m209.206 284.619 2.596-.026 2.838.019 2.997-.016c3.276-.013 6.552-.005 9.828.006a3699.694 3699.694 0 0 1 21.12.007c6.115.017 12.23.007 18.344-.01 4.696-.012 9.39-.008 14.086 0 2.254.002 4.51 0 6.764-.008 3.15-.007 6.3.004 9.451.02l2.833-.018c6.248.062 6.248.062 9.517 1.699 2.39 2.875 1.955 6.214 1.857 9.77l.022 2.221c-.025 2.127-.025 2.127-.459 5.717-3.098 2.065-3.747 2.25-7.25 2.254l-2.626.017-2.872-.012-3.031.01c-3.313.01-6.626.003-9.94-.003l-6.893.005c-4.819.003-9.637 0-14.456-.01-6.184-.012-12.368-.005-18.552.007-4.746.007-9.492.005-14.237 0-2.281-.002-4.562 0-6.842.005a1875.1 1875.1 0 0 1-9.553-.014l-2.872.012-2.625-.017-2.282-.002C205 306 205 306 202 304a60.771 60.771 0 0 1-.375-7.937l-.035-2.21c.03-5.337.03-5.337 1.672-7.562 2.15-1.598 3.283-1.668 5.944-1.672Zm0-39 2.596-.026 2.838.019 2.997-.016c3.276-.013 6.552-.005 9.828.006a3699.694 3699.694 0 0 1 21.12.007c6.115.017 12.23.007 18.344-.01 4.696-.012 9.39-.008 14.086 0 2.254.002 4.51 0 6.764-.008 3.15-.007 6.3.004 9.451.02l2.833-.018c6.257.062 6.257.062 9.514 1.714 2.31 2.747 2.001 5.78 1.923 9.193l.047 2.05c-.023 2.879-.078 4.893-1.97 7.142-4.01 2.036-7.895 1.733-12.33 1.712l-2.998.02c-3.27.02-6.54.015-9.812.01l-6.814.015c-4.762.01-9.523.007-14.284-.003-6.107-.011-12.213.009-18.32.038-4.691.018-9.382.018-14.073.012-2.252 0-4.503.006-6.755.019a957.61 957.61 0 0 1-9.437-.013l-2.828.029c-6.273-.072-6.273-.072-9.518-2.353-2.062-3.19-1.687-5.506-1.346-9.24l.286-3.723c.997-4.917 2.863-6.588 7.858-6.596Zm-.993-37.873 2.677-.017 2.944.012 3.095-.01c3.388-.01 6.776-.003 10.165.003l7.04-.005c4.922-.003 9.845 0 14.768.01 6.322.012 12.644.005 18.966-.007 4.847-.007 9.694-.005 14.541 0 2.332.002 4.663 0 6.995-.005 3.254-.005 6.508.003 9.762.014l2.944-.012 2.677.017 2.333.002C309 208 309 208 311 210c.414 2.518.694 4.903.875 7.438l.219 2.064c.367 4.94.367 4.94-1.494 7.192-4.05 2.034-7.975 1.731-12.446 1.71l-3.026.02c-3.303.02-6.606.015-9.91.01l-6.881.015c-4.809.01-9.617.007-14.425-.003a2852.58 2852.58 0 0 0-18.502.038c-4.737.018-9.474.018-14.211.012-2.275 0-4.549.006-6.823.019-3.177.014-6.353.004-9.53-.013l-2.856.029c-6.334-.072-6.334-.072-9.59-2.35-2.061-3.21-1.642-5.561-1.275-9.306l.32-3.758c.836-4.697 2.311-5.367 6.768-5.371Z"/>
</svg>
